<?xml version="1.0" encoding="utf-8"?>
<!-- Generator: Adobe Illustrator 14.0.0, SVG Export Plug-In . SVG Version: 6.00 Build 43363)  -->
<!DOCTYPE svg PUBLIC "-//W3C//DTD SVG 1.1//EN" "http://www.w3.org/Graphics/SVG/1.1/DTD/svg11.dtd">
<svg version="1.1" xmlns="http://www.w3.org/2000/svg" xmlns:xlink="http://www.w3.org/1999/xlink" x="0px" y="0px" width="196px"
	 height="196px" viewBox="0 0 196 196" enable-background="new 0 0 196 196" xml:space="preserve">
<g id="base" display="none">
	<circle display="inline" cx="98" cy="98" r="98"/>
</g>
<g id="fleche" display="none">
	<path display="inline" d="M98.001,0C43.876,0,0,43.877,0,98.001C0,152.125,43.876,196,98.001,196
		C152.125,196,196,152.125,196,98.001C196,43.877,152.125,0,98.001,0z M73.369,158.042V37.958l85.975,60.043L73.369,158.042z"/>
</g>
<g id="github" display="none">
	<path display="inline" d="M98,0C43.879,0,0,43.881,0,98c0,43.307,28.077,80.032,67.021,92.989c4.9,0.896,6.688-2.131,6.688-4.715
		c0-2.332-0.09-10.061-0.137-18.242c-27.252,5.922-33.012-11.557-33.012-11.557c-4.463-11.316-10.881-14.332-10.881-14.332
		c-8.906-6.076,0.676-5.957,0.676-5.957c9.84,0.682,15.02,10.098,15.02,10.098c8.744,14.977,22.945,10.646,28.52,8.135
		c0.891-6.316,3.428-10.648,6.221-13.088c-21.754-2.477-44.639-10.887-44.639-48.438c0-10.707,3.822-19.439,10.078-26.301
		c-0.998-2.488-4.373-12.459,0.969-25.947c0,0,8.219-2.632,26.953,10.049c7.811-2.184,16.191-3.26,24.524-3.296
		c8.326,0.036,16.711,1.124,24.535,3.308c18.699-12.692,26.93-10.049,26.93-10.049c5.359,13.5,1.986,23.459,0.98,25.936
		c6.281,6.861,10.072,15.594,10.072,26.301c0,37.647-22.92,45.938-44.752,48.366c3.529,3.039,6.65,8.996,6.65,18.137
		c0,13.1-0.131,23.662-0.131,26.893c0,2.607,1.781,5.658,6.746,4.701C167.948,178.008,196,141.282,196,98C196,43.881,152.122,0,98,0
		z"/>
</g>
<g id="linkedin" display="none">
	<path display="inline" d="M98,0c-54.124,0-98,43.876-98,98c0,54.124,43.876,98,98,98c54.125,0,98-43.877,98-98
		C196,43.876,152.125,0,98,0z M71.482,149.26H47.323V71.563h24.159V149.26z M59.404,60.939c-7.741,0-13.998-6.274-13.998-14.006
		c0-7.724,6.257-13.998,13.998-13.998c7.72,0,13.995,6.274,13.995,13.998C73.398,54.665,67.124,60.939,59.404,60.939z
		 M161.924,149.26h-24.12v-37.783c0-9.016-0.177-20.605-12.552-20.605c-12.566,0-14.483,9.818-14.483,19.951v38.438H86.627V71.563
		h23.167v10.611h0.329c3.225-6.106,11.104-12.549,22.852-12.549c24.436,0,28.949,16.088,28.949,37.017V149.26z"/>
</g>
<g id="viadeo">
	<g>
		<g>
			<path d="M98,0C43.875,0,0,43.876,0,98c0,54.123,43.875,98,98,98c54.123,0,98-43.877,98-98C196,43.876,152.124,0,98,0z
				 M125.907,155.608c-9.326,10.17-21.316,15.254-35.967,15.254c-14.711,0-26.73-5.084-36.057-15.254
				c-9.324-10.168-13.988-22.053-13.988-35.65c0-13.48,4.412-25.17,13.24-35.072c9.707-10.915,21.977-16.372,36.805-16.372
				c6.236,0,12.016,0.979,17.348,2.914c-1.732,3.387-3.297,7.535-3.721,11.994c-4.238-1.762-8.791-2.651-13.672-2.651
				c-10.256,0-19.07,3.847-26.436,11.541c-7.369,7.693-11.055,16.998-11.055,27.914c0,7.037,1.682,13.598,5.041,19.682
				c3.361,6.084,7.898,10.781,13.617,14.092c3.795,2.197,7.841,3.647,12.128,4.387c36.654-14.236,32.335-83.727,32.07-87.534
				c-1.448-4.232-7.856-22.028-19.669-41.851c0,0,16.768,11.117,19.656,41.679c0,0,0.005,0.064,0.013,0.172
				c0.212,0.621,0.319,0.955,0.319,0.955c21.545,57.517-25.422,87.14-25.422,87.14c-0.133,0.006-0.263,0.009-0.395,0.014
				c0.044,0,0.087,0.004,0.131,0.004c6.838,0,13.115-1.654,18.834-4.965s10.256-8.008,13.617-14.092
				c3.357-6.084,5.039-12.645,5.039-19.682c0-5.711-1.021-10.977-3.047-15.805c3.371-0.701,7.439-2.08,11.721-4.715
				c2.551,6.227,3.838,12.975,3.838,20.252C139.897,133.555,135.233,145.44,125.907,155.608z M159.35,72.451
				c0,0-3.787,10.294-11.684,14.994c-5.957,3.545-14.982,4.661-24.422-4.586c0,0,28.541-15.64,29.607-28.877
				c0,0-8.766,19.705-32.744,25.16c0,0-8.748-13.539,2.357-24.703c0,0,3.887-4.285,14.994-7.105c0,0,11.105-2.367,17.104-15.111
				C154.563,32.223,167.002,49.59,159.35,72.451z"/>
		</g>
	</g>
</g>
<g id="cv" display="none">
	<path display="inline" d="M98,0C43.876,0,0,43.875,0,98c0,54.123,43.876,98,98,98c54.123,0,98-43.877,98-98
		C196,43.875,152.124,0,98,0z M49.13,108.934c1.068,3.049,2.522,5.615,4.362,7.699c1.839,2.086,3.984,3.672,6.438,4.756
		c2.452,1.088,5.079,1.631,7.883,1.631c1.611,0,3.083-0.08,4.414-0.236c1.331-0.158,2.566-0.43,3.705-0.816
		c1.139-0.385,2.225-0.883,3.259-1.496c1.033-0.613,2.076-1.375,3.127-2.287c0.42-0.35,0.875-0.639,1.366-0.867
		c0.49-0.227,0.998-0.342,1.524-0.342c0.42,0,0.841,0.08,1.261,0.236c0.421,0.158,0.823,0.43,1.209,0.814l7.042,7.41
		c-3.083,4.029-6.946,7.068-11.588,9.119c-4.643,2.049-10.135,3.074-16.476,3.074c-5.816,0-11.027-0.99-15.635-2.969
		c-4.607-1.98-8.513-4.713-11.719-8.199s-5.668-7.621-7.384-12.402c-1.717-4.783-2.575-9.977-2.575-15.582
		c0-5.71,0.98-10.958,2.943-15.74c1.961-4.782,4.703-8.907,8.225-12.376c3.521-3.469,7.733-6.166,12.639-8.094
		c4.904-1.926,10.317-2.89,16.239-2.89c2.872,0,5.578,0.254,8.119,0.762c2.54,0.508,4.913,1.209,7.121,2.103
		c2.207,0.893,4.238,1.962,6.096,3.205c1.856,1.244,3.503,2.619,4.94,4.126l-5.991,8.04c-0.386,0.491-0.841,0.938-1.366,1.34
		c-0.526,0.403-1.262,0.604-2.208,0.604c-0.63,0-1.227-0.14-1.786-0.42c-0.562-0.28-1.156-0.622-1.787-1.025
		c-0.631-0.402-1.323-0.841-2.076-1.313c-0.754-0.473-1.646-0.91-2.68-1.313c-1.034-0.402-2.242-0.744-3.626-1.025
		c-1.385-0.279-3.005-0.42-4.861-0.42c-3.224,0-6.167,0.569-8.829,1.708c-2.663,1.139-4.949,2.768-6.858,4.887
		c-1.909,2.121-3.398,4.687-4.467,7.699c-1.069,3.014-1.603,6.395-1.603,10.143C47.527,102.401,48.061,105.887,49.13,108.934z
		 M143.278,136.788h-16.08L96.506,60.219h14.295c1.541,0,2.803,0.351,3.783,1.051c0.98,0.701,1.682,1.629,2.102,2.785l14.82,40.991
		c0.666,1.787,1.34,3.732,2.023,5.834s1.322,4.309,1.918,6.621c0.49-2.313,1.059-4.52,1.709-6.621
		c0.646-2.102,1.287-4.047,1.918-5.834l14.715-40.991c0.35-0.98,1.033-1.865,2.049-2.654c1.016-0.788,2.26-1.182,3.73-1.182h14.4
		L143.278,136.788z"/>
</g>
<g id="mail" display="none">
	<path display="inline" d="M98,0C43.877,0,0,43.875,0,98c0,54.123,43.877,98,98,98c54.125,0,98-43.877,98-98
		C196,43.875,152.125,0,98,0z M154.7,58.31L98,107.448L41.295,58.31H154.7z M37.52,62.088L79.1,97.998l-41.58,35.916V62.088z
		 M41.295,137.692l41.387-35.682L98,114.583l15.076-12.572l41.623,35.682H41.295z M158.481,133.914l-41.578-35.916l41.578-35.909
		V133.914z"/>
</g>
<g id="twitter" display="none">
	<path display="inline" d="M98.004,0C43.876,0,0,43.887,0,98.003C0,152.127,43.876,196,98.004,196
		C152.129,196,196,152.127,196,98.003C196,43.887,152.122,0,98.004,0z M147.372,78.245c0.047,1.057,0.07,2.121,0.07,3.194
		c0,32.64-24.843,70.27-70.27,70.27c-13.944,0-26.934-4.089-37.863-11.093c1.936,0.226,3.898,0.342,5.893,0.342
		c11.574,0,22.224-3.948,30.673-10.571c-10.805-0.202-19.923-7.346-23.066-17.155c1.504,0.295,3.051,0.443,4.644,0.443
		c2.255,0,4.432-0.296,6.507-0.867c-11.302-2.266-19.813-12.258-19.813-24.213c0-0.105,0-0.21,0-0.318
		c3.326,1.854,7.135,2.961,11.189,3.094c-6.631-4.439-10.988-11.986-10.988-20.561c0-4.523,1.217-8.771,3.344-12.418
		c12.18,14.94,30.381,24.777,50.91,25.803c-0.424-1.803-0.643-3.691-0.643-5.627c0-13.635,11.063-24.695,24.703-24.695
		c7.105,0,13.518,3,18.019,7.797c5.628-1.104,10.913-3.164,15.687-5.994c-1.85,5.771-5.76,10.611-10.859,13.662
		c4.998-0.596,9.756-1.924,14.187-3.887C156.389,70.413,152.2,74.762,147.372,78.245z"/>
</g>
</svg>
