<?xml version="1.0" encoding="utf-8"?>
<!-- Generator: Adobe Illustrator 14.0.0, SVG Export Plug-In . SVG Version: 6.00 Build 43363)  -->
<!DOCTYPE svg PUBLIC "-//W3C//DTD SVG 1.1//EN" "http://www.w3.org/Graphics/SVG/1.1/DTD/svg11.dtd">
<svg version="1.1" id="Calque_1" xmlns="http://www.w3.org/2000/svg" xmlns:xlink="http://www.w3.org/1999/xlink" x="0px" y="0px"
	 width="595.28px" height="841.89px" viewBox="0 0 595.28 841.89" enable-background="new 0 0 595.28 841.89" xml:space="preserve">
<circle cx="143.021" cy="158.755" r="98"/>
<path fill="#FFFFFF" d="M422.229,207.105"/>
<g>
	<g>
		<path d="M376.959,269.857c-54.124,0-98,43.876-98,98s43.876,98,98,98s98-43.876,98-98S431.083,269.857,376.959,269.857z
			 M404.866,425.466c-9.326,10.169-21.316,15.253-35.967,15.253c-14.712,0-26.73-5.084-36.057-15.253
			c-9.325-10.168-13.989-22.053-13.989-35.652c0-13.479,4.413-25.17,13.241-35.071c9.707-10.915,21.977-16.372,36.805-16.372
			c6.235,0,12.015,0.979,17.348,2.914c-1.732,3.388-3.298,7.536-3.722,11.994c-4.238-1.761-8.791-2.651-13.671-2.651
			c-10.256,0-19.07,3.847-26.437,11.541c-7.368,7.693-11.054,16.999-11.054,27.914c0,7.038,1.681,13.599,5.041,19.682
			s7.897,10.782,13.616,14.091c3.795,2.197,7.842,3.648,12.13,4.387c36.652-14.236,32.333-83.727,32.068-87.534
			c-1.448-4.232-7.856-22.028-19.669-41.852c0,0,16.769,11.117,19.656,41.679c0,0,0.005,0.064,0.013,0.172
			c0.212,0.621,0.319,0.955,0.319,0.955c21.546,57.517-25.422,87.14-25.422,87.14c-0.13,0.007-0.258,0.01-0.387,0.014
			c0.042,0,0.082,0.004,0.124,0.004c6.837,0,13.114-1.654,18.833-4.965c5.719-3.31,10.256-8.008,13.618-14.091
			c3.357-6.083,5.039-12.644,5.039-19.682c0-5.71-1.022-10.976-3.048-15.804c3.371-0.703,7.439-2.081,11.722-4.715
			c2.55,6.227,3.837,12.973,3.837,20.25C418.855,403.413,414.191,415.298,404.866,425.466z M438.31,342.309
			c0,0-3.787,10.294-11.685,14.994c-5.957,3.545-14.982,4.66-24.422-4.586c0,0,28.542-15.64,29.607-28.877
			c0,0-8.766,19.705-32.743,25.161c0,0-8.748-13.54,2.357-24.704c0,0,3.887-4.285,14.994-7.105c0,0,11.105-2.368,17.104-15.112
			C433.522,302.08,445.961,319.448,438.31,342.309z"/>
	</g>
</g>
<path d="M134,293c-54.124,0-98,43.876-98,98s43.876,98,98,98s98-43.876,98-98S188.124,293,134,293z M107.481,442.26H83.322v-77.696
	h24.159V442.26z M95.403,353.939c-7.741,0-13.998-6.274-13.998-14.006c0-7.724,6.257-13.998,13.998-13.998
	c7.72,0,13.995,6.274,13.995,13.998C109.397,347.665,103.123,353.939,95.403,353.939z M197.924,442.26h-24.121v-37.782
	c0-9.016-0.177-20.605-12.552-20.605c-12.567,0-14.483,9.817-14.483,19.951v38.437h-24.141v-77.696h23.167v10.611h0.33
	c3.224-6.106,11.104-12.549,22.852-12.549c24.436,0,28.949,16.088,28.949,37.017V442.26z"/>
<path d="M627.004,259.681c-54.123,0-98,43.875-98,98c0,54.123,43.877,98,98,98c54.125,0,98-43.877,98-98
	C725.004,303.556,681.129,259.681,627.004,259.681z M683.703,317.99l-56.699,49.138l-56.705-49.138H683.703z M566.523,321.769
	l41.58,35.909l-41.58,35.916V321.769z M570.299,397.372l41.387-35.682l15.318,12.572l15.076-12.572l41.623,35.682H570.299z
	 M687.484,393.594l-41.578-35.916l41.578-35.909V393.594z"/>
<path d="M569.313,474.046c-54.128,0-98.004,43.888-98.004,98.004c0,54.124,43.876,97.996,98.004,97.996
	c54.125,0,97.996-43.872,97.996-97.996C667.309,517.934,623.43,474.046,569.313,474.046z M618.68,552.291
	c0.047,1.057,0.07,2.121,0.07,3.194c0,32.64-24.843,70.27-70.27,70.27c-13.944,0-26.934-4.089-37.863-11.093
	c1.936,0.226,3.898,0.342,5.893,0.342c11.574,0,22.224-3.948,30.673-10.571c-10.805-0.202-19.923-7.346-23.066-17.155
	c1.504,0.295,3.051,0.443,4.644,0.443c2.255,0,4.432-0.296,6.507-0.867c-11.302-2.266-19.813-12.258-19.813-24.213
	c0-0.105,0-0.21,0-0.318c3.326,1.854,7.135,2.961,11.189,3.094c-6.631-4.439-10.988-11.986-10.988-20.561
	c0-4.523,1.217-8.771,3.344-12.418c12.18,14.94,30.381,24.777,50.91,25.803c-0.424-1.803-0.643-3.691-0.643-5.627
	c0-13.635,11.063-24.695,24.703-24.695c7.105,0,13.518,3,18.019,7.797c5.628-1.104,10.913-3.164,15.687-5.994
	c-1.85,5.771-5.76,10.611-10.859,13.662c4.998-0.596,9.756-1.924,14.187-3.887C627.697,544.459,623.508,548.809,618.68,552.291z"/>
<path d="M375.799,6.653c-54.125,0-98.001,43.877-98.001,98.001c0,54.124,43.876,97.999,98.001,97.999
	c54.124,0,97.998-43.875,97.998-97.999C473.797,50.53,429.923,6.653,375.799,6.653z M351.166,164.695V44.611l85.975,60.043
	L351.166,164.695z"/>
<path d="M327.641,492.736c-54.121,0-98,43.881-98,98c0,43.307,28.077,80.032,67.022,92.988c4.899,0.896,6.688-2.13,6.688-4.714
	c0-2.333-0.09-10.061-0.138-18.243c-27.251,5.922-33.012-11.557-33.012-11.557c-4.462-11.316-10.88-14.331-10.88-14.331
	c-8.906-6.077,0.676-5.958,0.676-5.958c9.839,0.682,15.02,10.098,15.02,10.098c8.744,14.977,22.944,10.646,28.52,8.135
	c0.891-6.316,3.427-10.647,6.221-13.088c-21.755-2.477-44.64-10.887-44.64-48.438c0-10.707,3.822-19.439,10.079-26.301
	c-0.999-2.488-4.373-12.459,0.969-25.947c0,0,8.219-2.632,26.952,10.049c7.812-2.184,16.191-3.26,24.523-3.296
	c8.326,0.036,16.712,1.124,24.536,3.308c18.698-12.692,26.929-10.049,26.929-10.049c5.359,13.5,1.986,23.459,0.981,25.936
	c6.28,6.861,10.072,15.594,10.072,26.301c0,37.646-22.921,45.938-44.753,48.365c3.529,3.039,6.651,8.996,6.651,18.137
	c0,13.1-0.132,23.662-0.132,26.893c0,2.607,1.782,5.658,6.747,4.701c38.915-12.98,66.969-49.706,66.969-92.988
	C425.641,536.617,381.761,492.736,327.641,492.736z"/>
<path d="M86.527,511.958c-54.124,0-98,43.875-98,98c0,54.123,43.876,98,98,98s98-43.877,98-98
	C184.527,555.833,140.651,511.958,86.527,511.958z M37.657,620.893c1.068,3.049,2.522,5.615,4.362,7.699
	c1.839,2.085,3.984,3.671,6.438,4.756c2.452,1.087,5.079,1.63,7.883,1.63c1.611,0,3.083-0.079,4.414-0.236
	c1.331-0.158,2.566-0.429,3.705-0.815c1.139-0.385,2.225-0.884,3.259-1.497c1.033-0.613,2.076-1.375,3.127-2.286
	c0.42-0.35,0.875-0.639,1.366-0.867c0.49-0.228,0.998-0.342,1.524-0.342c0.42,0,0.841,0.079,1.261,0.236
	c0.421,0.158,0.823,0.43,1.209,0.814l7.042,7.41c-3.083,4.029-6.946,7.068-11.588,9.118c-4.643,2.05-10.135,3.074-16.476,3.074
	c-5.816,0-11.027-0.989-15.635-2.969s-8.513-4.712-11.719-8.198s-5.668-7.621-7.384-12.403c-1.717-4.782-2.575-9.976-2.575-15.582
	c0-5.71,0.98-10.957,2.943-15.739c1.961-4.782,4.703-8.907,8.225-12.376c3.521-3.469,7.733-6.166,12.639-8.094
	c4.904-1.926,10.317-2.89,16.239-2.89c2.872,0,5.578,0.254,8.119,0.762c2.54,0.508,4.913,1.209,7.121,2.103
	c2.207,0.893,4.238,1.962,6.096,3.205c1.856,1.244,3.503,2.619,4.94,4.126l-5.991,8.04c-0.386,0.491-0.841,0.938-1.366,1.34
	c-0.526,0.403-1.262,0.604-2.208,0.604c-0.63,0-1.227-0.14-1.786-0.42c-0.562-0.28-1.156-0.622-1.787-1.025
	c-0.631-0.402-1.323-0.841-2.076-1.313c-0.754-0.473-1.646-0.91-2.68-1.313c-1.034-0.402-2.242-0.744-3.626-1.025
	c-1.385-0.279-3.005-0.42-4.861-0.42c-3.224,0-6.167,0.569-8.829,1.708c-2.663,1.139-4.949,2.768-6.858,4.887
	c-1.909,2.121-3.398,4.687-4.467,7.699c-1.069,3.014-1.603,6.395-1.603,10.143C36.055,614.359,36.588,617.845,37.657,620.893z
	 M131.806,648.746h-16.081l-30.691-76.569h14.295c1.541,0,2.803,0.351,3.783,1.051c0.98,0.701,1.682,1.629,2.103,2.785l14.82,40.991
	c0.665,1.787,1.34,3.731,2.022,5.834c0.684,2.102,1.322,4.309,1.919,6.621c0.49-2.313,1.059-4.52,1.708-6.621
	c0.647-2.103,1.287-4.047,1.918-5.834l14.715-40.991c0.35-0.98,1.033-1.865,2.05-2.654c1.016-0.788,2.26-1.182,3.73-1.182h14.399
	L131.806,648.746z"/>
</svg>
