<svg width="256" height="256" viewBox="0 0 256 256" fill="none" xmlns="http://www.w3.org/2000/svg">
<rect width="256" height="256" fill="#081110"/>
<path d="M30.195 215V212.52H41.603V43.88H30.195V41.4H59.087L80.539 176.312H79.299L104.595 41.4H131.875V43.88H120.095V212.52H131.875V215H94.799V212.52H105.215V45.244H106.331L74.959 215H71.983L43.215 43.012H44.083V212.52H56.855V215H30.195Z" fill="white"/>
<path d="M218.022 216.984C213.558 216.984 210.169 215.579 207.854 212.768C205.539 209.957 203.969 206.32 203.142 201.856C202.315 197.309 201.902 192.597 201.902 187.72C201.902 182.099 202.109 176.353 202.522 170.484C202.935 164.615 203.142 159.241 203.142 154.364C203.142 147.751 202.439 142.419 201.034 138.368C199.629 134.317 197.149 131.383 193.594 129.564C190.122 127.745 185.245 126.836 178.962 126.836H171.274V212.52H182.558V215H144.986V212.52H156.518V43.88H144.986V41.4H186.774C193.222 41.4 198.926 42.8053 203.886 45.616C208.846 48.344 212.69 52.684 215.418 58.636C218.229 64.5053 219.634 72.1933 219.634 81.7C219.634 89.14 218.725 95.5467 216.906 100.92C215.17 106.293 212.814 110.716 209.838 114.188C206.862 117.66 203.514 120.347 199.794 122.248C196.157 124.067 192.519 125.141 188.882 125.472C197.149 125.637 203.307 127.373 207.358 130.68C211.491 133.904 214.219 138.409 215.542 144.196C216.947 149.983 217.65 156.885 217.65 164.904C217.65 168.872 217.567 172.881 217.402 176.932C217.237 180.9 217.154 184.785 217.154 188.588C217.154 191.812 217.278 195.284 217.526 199.004C217.857 202.641 218.477 205.783 219.386 208.428C220.295 211.073 221.618 212.396 223.354 212.396C224.098 212.396 224.759 212.107 225.338 211.528C225.999 210.867 226.371 210.081 226.454 209.172H228.81C228.645 210.825 227.983 212.231 226.826 213.388C225.751 214.545 224.429 215.413 222.858 215.992C221.287 216.653 219.675 216.984 218.022 216.984ZM171.274 124.356H182.062C187.766 124.356 192.189 122.455 195.33 118.652C198.554 114.849 200.827 109.765 202.15 103.4C203.473 97.0347 204.134 89.9667 204.134 82.196C204.134 75.004 203.638 68.5147 202.646 62.728C201.737 56.9413 199.794 52.3533 196.818 48.964C193.842 45.5747 189.378 43.88 183.426 43.88H171.274V124.356Z" fill="white"/>
</svg>
