<?xml version="1.0" encoding="utf-8"?>
<!-- Generator: Adobe Illustrator 22.0.1, SVG Export Plug-In . SVG Version: 6.00 Build 0)  -->
<svg version="1.1" id="Calque_1" focusable="false" xmlns="http://www.w3.org/2000/svg" xmlns:xlink="http://www.w3.org/1999/xlink"
	 x="0px" y="0px" viewBox="0 0 50 50" style="enable-background:new 0 0 50 50;" xml:space="preserve">
<style type="text/css">
	.st0{fill:#FFFFFF;}
</style>
<path class="st0" d="M45.82303,0H4.17697C1.86882,0,0,1.87009,0,4.17697v41.64606C0,48.13118,1.87009,50,4.17697,50h41.64606
	C48.13118,50,50,48.12991,50,45.82303V4.17697C50,1.86882,48.12991,0,45.82303,0z M14.58333,42.70833H7.29167V18.75h7.29167
	V42.70833z M10.9375,15.625c-2.58853,0-4.6875-2.09897-4.6875-4.6875S8.34897,6.25,10.9375,6.25s4.6875,2.09897,4.6875,4.6875
	S13.52603,15.625,10.9375,15.625z M42.70833,43.02082h-7.29166v-11.6052c0-4.06876-0.97606-6.36355-3.45834-6.36355
	c-3.4427,0-4.87499,2.47396-4.87499,6.36355v11.6052h-7.29167V19.06249h6.77083v3.40207
	c0.97605-1.95624,3.4771-3.71456,7.23438-3.71456c7.20208,0,8.91145,3.89372,8.91145,11.03853V43.02082z"/>
</svg>
