<?xml version="1.0" encoding="utf-8"?>
<!-- Generator: Adobe Illustrator 14.0.0, SVG Export Plug-In . SVG Version: 6.00 Build 43363)  -->
<!DOCTYPE svg PUBLIC "-//W3C//DTD SVG 1.1//EN" "http://www.w3.org/Graphics/SVG/1.1/DTD/svg11.dtd">
<svg version="1.1" xmlns="http://www.w3.org/2000/svg" xmlns:xlink="http://www.w3.org/1999/xlink" x="0px" y="0px" width="48px"
	 height="48px" viewBox="0 0 48 48" enable-background="new 0 0 48 48" xml:space="preserve">
<g id="base" display="none">
	<circle display="inline" cx="24" cy="24" r="24"/>
</g>
<g id="fleche" display="none">
	<path display="inline" d="M24.0009766,0C10.7451172,0,0,10.7451172,0,24s10.7451172,24,24.0009766,24
		C37.2558594,48,48,37.2548828,48,24S37.2558594,0,24.0009766,0z M17.9677734,38.7041016V9.2958984L39.0234375,24
		L17.9677734,38.7041016z"/>
</g>
<g id="github" display="none">
	<path display="inline" d="M24,0C10.7460938,0,0,10.7460938,0,24c0,10.6054688,6.8759766,19.5996094,16.4140625,22.7724609
		c1.1992188,0.2197266,1.6376953-0.5214844,1.6376953-1.1542969c0-0.5712891-0.0224609-2.4638672-0.0341797-4.4677734
		c-6.6738281,1.4501953-8.0839844-2.8300781-8.0839844-2.8300781c-1.0927734-2.7714844-2.6650391-3.5097656-2.6650391-3.5097656
		c-2.1806641-1.4882813,0.1660156-1.4589844,0.1660156-1.4589844c2.4091797,0.1669922,3.6777344,2.4726563,3.6777344,2.4726563
		c2.1416016,3.6679688,5.6191406,2.6074219,6.984375,1.9921875c0.2177734-1.546875,0.8398438-2.6074219,1.5234375-3.2050781
		c-5.3271484-0.6064453-10.9316406-2.6660156-10.9316406-11.8623047c0-2.6220703,0.9355469-4.7607422,2.4677734-6.4404297
		c-0.2441406-0.609375-1.0703125-3.0517578,0.2373047-6.3544922c0,0,2.0126953-0.6445313,6.6005859,2.4609375
		C19.9072266,11.8798828,21.9599609,11.6162109,24,11.6074219c2.0390625,0.0087891,4.0927734,0.2753906,6.0087891,0.8105469
		c4.5791016-3.1083984,6.5947266-2.4609375,6.5947266-2.4609375c1.3125,3.3056641,0.4873047,5.7441406,0.2402344,6.3515625
		c1.5380859,1.6796875,2.4667969,3.8183594,2.4667969,6.4404297c0,9.2197266-5.6132813,11.25-10.9599609,11.8447266
		c0.8652344,0.7441406,1.6289063,2.203125,1.6289063,4.4414063c0,3.2080078-0.0322266,5.7949219-0.0322266,6.5859375
		c0,0.6386719,0.4365234,1.3857422,1.6523438,1.1513672C41.1298828,43.59375,48,34.5996094,48,24C48,10.7460938,37.2548828,0,24,0z"
		/>
</g>
<g id="linkedin" display="none">
	<path display="inline" d="M24,0C10.7451172,0,0,10.7451172,0,24s10.7451172,24,24,24c13.2558594,0,24-10.7451172,24-24
		S37.2558594,0,24,0z M17.5058594,36.5537109h-5.9160156V17.5253906h5.9160156V36.5537109z M14.5478516,14.9238281
		c-1.8955078,0-3.4277344-1.5361328-3.4277344-3.4296875c0-1.8916016,1.5322266-3.4287109,3.4277344-3.4287109
		c1.890625,0,3.4277344,1.5371094,3.4277344,3.4287109C17.9755859,13.3876953,16.4384766,14.9238281,14.5478516,14.9238281z
		 M39.6552734,36.5537109h-5.9072266v-9.2529297c0-2.2080078-0.0429688-5.046875-3.0742188-5.046875
		c-3.0771484,0-3.546875,2.4052734-3.546875,4.8867188v9.4130859h-5.9121094V17.5253906h5.6738281v2.5986328H26.96875
		c0.7900391-1.4951172,2.7197266-3.0732422,5.5966797-3.0732422c5.984375,0,7.0898438,3.9404297,7.0898438,9.0654297V36.5537109z"/>
</g>
<g id="viadeo" display="none">
	<g display="inline">
		<g>
			<path d="M22.015625,38.9296875c0.0214844,0,0.0410156-0.0039063,0.0625-0.0039063
				c-0.03125,0.0019531-0.0605469,0.0009766-0.0917969,0.0019531C21.9960938,38.9277344,22.0058594,38.9296875,22.015625,38.9296875
				z M24,0C10.7451172,0,0,10.7451172,0,24s10.7451172,24,24,24s24-10.7451172,24-24S37.2548828,0,24,0z M30.8339844,38.1083984
				c-2.2832031,2.4902344-5.2197266,3.7353516-8.8076172,3.7353516c-3.6025391,0-6.5458984-1.2451172-8.8300781-3.7353516
				c-2.2832031-2.4902344-3.4257813-5.4013672-3.4257813-8.7314453c0-3.3007813,1.0800781-6.1640625,3.2421875-8.5888672
				c2.3779297-2.6728516,5.3818359-4.0087891,9.0136719-4.0087891c1.5273438,0,2.9423828,0.2392578,4.2480469,0.7128906
				c-0.4238281,0.8300781-0.8066406,1.8457031-0.9111328,2.9375c-1.0380859-0.4316406-2.1523438-0.6494141-3.3476563-0.6494141
				c-2.5117188,0-4.6708984,0.9423828-6.4746094,2.8261719c-1.8046875,1.8847656-2.7070313,4.1630859-2.7070313,6.8359375
				c0,1.7236328,0.4121094,3.3300781,1.234375,4.8203125c0.8232422,1.4902344,1.9345703,2.640625,3.3349609,3.4511719
				c0.9335938,0.5400391,1.9335938,0.8837891,2.9892578,1.0634766c8.9638672-3.5078125,7.8974609-20.5263672,7.8349609-21.4248047
				c-0.3535156-1.0332031-1.921875-5.3935547-4.8173828-10.2509766c0,0,4.1064453,2.7226563,4.8144531,10.2070313
				c0,0,0.0009766,0.0195313,0.0029297,0.0439453c0.0517578,0.1503906,0.078125,0.2324219,0.078125,0.2324219
				c5.2753906,14.0839844-6.2226563,21.3388672-6.2255859,21.3408203c1.6484375-0.0107422,3.1660156-0.4121094,4.5478516-1.2119141
				c1.4003906-0.8105469,2.5117188-1.9609375,3.3349609-3.4511719c0.8222656-1.4902344,1.2333984-3.0966797,1.2333984-4.8203125
				c0-1.3984375-0.25-2.6875-0.7460938-3.8701172c0.8261719-0.171875,1.8222656-0.5097656,2.8701172-1.1542969
				c0.625,1.5244141,0.9404297,3.1767578,0.9404297,4.9589844C34.2607422,32.7070313,33.1181641,35.6181641,30.8339844,38.1083984z
				 M39.0244141,17.7431641c0,0-0.9267578,2.5205078-2.8613281,3.671875
				c-1.4589844,0.8681641-3.6689453,1.1416016-5.9804688-1.1230469c0,0,6.9892578-3.8300781,7.2509766-7.0722656
				c0,0-2.1464844,4.8261719-8.0195313,6.1621094c0,0-2.1416016-3.3154297,0.5771484-6.0498047
				c0,0,0.9521484-1.0498047,3.6728516-1.7402344c0,0,2.7197266-0.5791016,4.1884766-3.7001953
				C37.8525391,7.8916016,40.8984375,12.1445313,39.0244141,17.7431641z"/>
		</g>
	</g>
</g>
<g id="cv" display="none">
	<path display="inline" d="M24,0C10.7451172,0,0,10.7451172,0,24s10.7451172,24,24,24s24-10.7451172,24-24S37.2548828,0,24,0z
		 M12.0322266,26.6777344c0.2617188,0.7470703,0.6171875,1.375,1.0683594,1.8857422
		c0.4501953,0.5107422,0.9755859,0.8994141,1.5761719,1.1640625c0.6005859,0.2666016,1.2441406,0.3994141,1.9306641,0.3994141
		c0.3945313,0,0.7548828-0.0195313,1.0810547-0.0576172c0.3261719-0.0390625,0.6279297-0.1054688,0.9072266-0.2001953
		c0.2792969-0.09375,0.5449219-0.2158203,0.7978516-0.3662109s0.5087891-0.3369141,0.765625-0.5595703
		c0.1035156-0.0859375,0.2148438-0.1572266,0.3349609-0.2128906s0.2441406-0.0839844,0.3730469-0.0839844
		c0.1035156,0,0.2060547,0.0195313,0.3085938,0.0585938c0.1035156,0.0380859,0.2021484,0.1044922,0.296875,0.1992188
		l1.7246094,1.8144531c-0.7558594,0.9873047-1.7011719,1.7314453-2.8378906,2.2333984
		c-1.1376953,0.5019531-2.4824219,0.7529297-4.0351563,0.7529297c-1.4248047,0-2.7001953-0.2421875-3.8291016-0.7265625
		c-1.1279297-0.4853516-2.0849609-1.1542969-2.8701172-2.0087891c-0.7851563-0.8535156-1.3876953-1.8662109-1.8076172-3.0371094
		c-0.4208984-1.1708984-0.6308594-2.4433594-0.6308594-3.8154297c0-1.3984375,0.2402344-2.6835938,0.7207031-3.8554688
		c0.4804688-1.1708984,1.1513672-2.1806641,2.0146484-3.0302734c0.8613281-0.8496094,1.8935547-1.5097656,3.0947266-1.9824219
		c1.2011719-0.4716797,2.5263672-0.7080078,3.9765625-0.7080078c0.7041016,0,1.3662109,0.0625,1.9892578,0.1875
		c0.6210938,0.1240234,1.203125,0.2958984,1.7431641,0.5146484c0.5410156,0.21875,1.0380859,0.4804688,1.4931641,0.7851563
		c0.4541016,0.3046875,0.8574219,0.640625,1.2099609,1.0097656l-1.4677734,1.96875
		c-0.09375,0.1210938-0.2050781,0.2304688-0.3339844,0.328125c-0.1289063,0.0996094-0.3095703,0.1484375-0.5410156,0.1484375
		c-0.1542969,0-0.2998047-0.0341797-0.4375-0.1025391c-0.1376953-0.0693359-0.2832031-0.1523438-0.4375-0.2509766
		s-0.3242188-0.2060547-0.5087891-0.3222656c-0.1845703-0.1152344-0.4033203-0.2226563-0.65625-0.3212891
		s-0.5488281-0.1826172-0.8876953-0.2509766s-0.7353516-0.1035156-1.1904297-0.1035156
		c-0.7890625,0-1.5107422,0.1396484-2.1621094,0.4189453c-0.6523438,0.2783203-1.2119141,0.6777344-1.6796875,1.1962891
		c-0.4677734,0.5195313-0.8320313,1.1474609-1.09375,1.8857422s-0.3925781,1.5664063-0.3925781,2.484375
		C11.6396484,25.078125,11.7705078,25.9316406,12.0322266,26.6777344z M35.0888672,33.4990234h-3.9384766l-7.5166016-18.7519531
		h3.5009766c0.3779297,0,0.6865234,0.0859375,0.9267578,0.2578125s0.4121094,0.3984375,0.5146484,0.6816406l3.6298828,10.0390625
		c0.1630859,0.4375,0.328125,0.9140625,0.4951172,1.4287109c0.1679688,0.5146484,0.3242188,1.0546875,0.4697266,1.6210938
		c0.1201172-0.5664063,0.2597656-1.1064453,0.4189453-1.6210938c0.1582031-0.5146484,0.3144531-0.9912109,0.4697266-1.4287109
		l3.6035156-10.0390625c0.0849609-0.2402344,0.2529297-0.4560547,0.5019531-0.6494141
		c0.2480469-0.1933594,0.5527344-0.2900391,0.9130859-0.2900391h3.5263672L35.0888672,33.4990234z"/>
</g>
<g id="mail" display="none">
	<path display="inline" d="M24,0C10.7460938,0,0,10.7451172,0,24s10.7460938,24,24,24c13.2558594,0,24-10.7451172,24-24
		S37.2558594,0,24,0z M37.8857422,14.2802734L24,26.3134766L10.1132813,14.2802734H37.8857422z M9.1884766,15.2050781
		l10.1835938,8.7939453L9.1884766,32.7949219V15.2050781z M10.1132813,33.7207031l10.1357422-8.7382813L24,28.0605469
		l3.6923828-3.078125l10.1933594,8.7382813H10.1132813z M38.8115234,32.7949219l-10.1816406-8.7958984l10.1816406-8.7939453
		V32.7949219z"/>
</g>
<g id="twitter">
	<path d="M24.0009766,0C10.7451172,0,0,10.7480469,0,24.0009766C0,37.2558594,10.7451172,48,24.0009766,48
		C37.2558594,48,48,37.2558594,48,24.0009766C48,10.7480469,37.2548828,0,24.0009766,0z M36.0908203,19.1621094
		c0.0117188,0.2587891,0.0175781,0.5195313,0.0175781,0.7822266c0,7.9931641-6.0839844,17.2089844-17.2089844,17.2089844
		c-3.4150391,0-6.5957031-1.0019531-9.2724609-2.7167969c0.4736328,0.0546875,0.9550781,0.0839844,1.4433594,0.0839844
		c2.8339844,0,5.4423828-0.9677734,7.5117188-2.5888672c-2.6464844-0.0498047-4.8789063-1.7998047-5.6494141-4.2021484
		c0.3681641,0.0722656,0.7470703,0.109375,1.1376953,0.109375c0.5517578,0,1.0849609-0.0732422,1.5927734-0.2128906
		c-2.7675781-0.5546875-4.8515625-3.0019531-4.8515625-5.9296875c0-0.0253906,0-0.0507813,0-0.078125
		c0.8144531,0.4541016,1.7470703,0.7255859,2.7402344,0.7578125c-1.6240234-1.0869141-2.6914063-2.9355469-2.6914063-5.0351563
		c0-1.1074219,0.2978516-2.1484375,0.8193359-3.0410156c2.9824219,3.6591797,7.4394531,6.0683594,12.4677734,6.3193359
		c-0.1044922-0.4414063-0.1572266-0.9042969-0.1572266-1.3779297c0-3.3398438,2.7089844-6.0478516,6.0488281-6.0478516
		c1.7402344,0,3.3105469,0.734375,4.4130859,1.9091797c1.3779297-0.2705078,2.6728516-0.7753906,3.8417969-1.4677734
		c-0.453125,1.4130859-1.4111328,2.5986328-2.6591797,3.3457031c1.2236328-0.1464844,2.3886719-0.4716797,3.4736328-0.9521484
		C38.2998047,17.2441406,37.2734375,18.3085938,36.0908203,19.1621094z"/>
</g>
</svg>
